<svg t="1709622497828" class="icon" viewBox="0 0 1024 1024" version="1.1" xmlns="http://www.w3.org/2000/svg" p-id="5197" width="200" height="200"><path d="M794.17 147.91c45.16 0.2 81.71 36.76 81.92 81.92v564.34c-0.2 45.16-36.76 81.71-81.92 81.92H229.83c-45.16-0.2-81.71-36.76-81.92-81.92V229.83c0.2-45.16 36.76-81.71 81.92-81.92h564.34m0-45.51H229.83c-70.09 0-127.43 57.34-127.43 127.43v564.34c0 70.08 57.34 127.43 127.43 127.43h564.34c70.08 0 127.43-57.34 127.43-127.43V229.83c0-70.09-57.34-127.43-127.43-127.43z m0 0" p-id="5198" fill="#1296db"></path><path d="M506.28 265.66v0.5c0 15.92-13.44 28.37-29.86 28.86h-75.65v203.05c0 15.43-11.94 28.87-27.37 28.87h-1c-6.97 0-13.93-2.99-18.91-7.96-5.48-5.47-8.46-12.94-8.46-20.9V295.52h-75.64c-16.42 0-30.36-12.94-30.36-28.86 0-15.93 13.44-28.86 30.36-28.86h207.03c16.42-0.5 29.86 12.43 29.86 27.86z m278.69 368.27c0 15.93-10.95 28.87-24.88 28.87H264.41c-13.44 0-24.88-12.94-24.88-28.87 0-15.92 10.95-28.86 24.88-28.86h495.67c13.94 0 24.89 12.94 24.89 28.86z m0 123.42c0 15.93-10.95 28.87-24.88 28.87H264.41c-13.44 0-24.88-12.94-24.88-28.87 0-15.92 10.95-28.87 24.88-28.87h495.67c13.94-0.49 24.89 12.95 24.89 28.87z m-0.5-423.51v0.5c0.5 14.93-9.95 28.37-22.89 28.86h-2.99l-0.5-0.5H539.12c-13.44 0-24.88-12.94-24.88-28.87 0-15.92 10.95-28.86 24.88-28.86h220.46c5.97 0 11.44 2.49 15.92 6.97 5.48 5.48 8.47 13.44 8.97 21.9z m0 113.97v0.5c0.5 14.93-9.95 28.36-22.89 28.86H539.12c-13.44 0-24.88-12.94-24.88-28.86 0-15.93 10.95-28.86 24.88-28.86h220.46c5.97 0 11.44 2.49 15.92 6.47 5.48 5.46 8.47 13.43 8.97 21.89z m0 0" p-id="5199" fill="#1296db"></path></svg>
